<svg xmlns="http://www.w3.org/2000/svg" viewBox="0 0 32 32" id="target">
  <path d="M16 1.5c-2.8974609 0-5.65625.9013672-7.9755859 2.6064453-.2226562.1640625-.2705078.4765625-.1074219.6992188.0986328.1337891.25.2041016.4033203.2041016.1035156 0 .2070312-.03125.2958984-.0966797 2.1474609-1.5791016 4.7001953-2.4130859 7.3837891-2.4130859 2.0410156 0 3.9814453.4755859 5.7675781 1.4121094.2431641.1279297.546875.0341797.6748047-.2099609.1289062-.2441406.0341797-.546875-.2099609-.6748047-1.9033203-.9990234-4.0585938-1.5273438-6.2324219-1.5273438zM29.5 15c0-2.1738281-.5283203-4.3291016-1.5273438-6.2324219-.1279297-.2441406-.4316406-.3369141-.6748047-.2099609-.2441406.1279297-.3388672.4306641-.2099609.6748047.9365234 1.7861328 1.4121094 3.7265625 1.4121094 5.7675781 0 6.8925781-5.6074219 12.5-12.5 12.5S3.5 21.8925781 3.5 15c0-2.6835938.8339844-5.2363281 2.4130859-7.3837891.1630859-.2226562.1152344-.5351562-.1074219-.6992188-.2197266-.1611328-.5332031-.1162109-.6992188.1074219-1.7050781 2.3193359-2.6064453 5.078125-2.6064453 7.9755859 0 5.8867798 3.7932129 10.8918457 9.0588989 12.7340698l-1.9124146 1.9124146c-.1953125.1953125-.1953125.5117188 0 .7070312.0976562.0976562.2255859.1464844.3535156.1464844s.2558594-.0488281.3535156-.1464844l2.2923584-2.2923584c1.074646.2762451 2.194397.4388428 3.354126.4388428s2.27948-.1625977 3.354126-.4388428l2.2923584 2.2923584c.0976562.0976562.2255859.1464844.3535156.1464844s.2558594-.0488281.3535156-.1464844c.1953125-.1953125.1953125-.5117188 0-.7070312l-1.9124146-1.9124146c5.265686-1.8422241 9.0588989-6.84729 9.0588989-12.7340698z" fill="#00c6ff" class="color000000 svgShape"></path>
  <path d="M16 25.5c5.7900391 0 10.5-4.7099609 10.5-10.5 0-2.7153931-1.0446777-5.1850586-2.7420654-7.0509033l.4490967-.4490967h1.7929688c.1328125 0 .2597656-.0527344.3535156-.1464844l3-3c.1425781-.1425781.1855469-.3583984.1083984-.5449219s-.2597656-.3085938-.4619141-.3085938h-1.5v-1.5c0-.2021484-.1220703-.3847656-.3085938-.4619141-.1855469-.0761719-.4013672-.0351562-.5449219.1083984l-3 3c-.09375.09375-.1464844.2207031-.1464844.3535156v1.7929688l-.4490967.4490967c-1.8658447-1.6973877-4.3355103-2.7420654-7.0509033-2.7420654-5.7900391 0-10.5 4.7099609-10.5 10.5s4.7099609 10.5 10.5 10.5zM24.5 5.2070312l2-2v.7929688c0 .2763672.2236328.5.5.5h.7929688l-2 2h-1.2929688v-1.2929688zm-8.5.2929688c2.4395142 0 4.6599121.9321899 6.3439941 2.4489746l-1.4134521 1.4134521c-1.3198242-1.1557617-3.0423584-1.8624268-4.930542-1.8624268-4.1357422 0-7.5 3.3642578-7.5 7.5s3.3642578 7.5 7.5 7.5 7.5-3.3642578 7.5-7.5c0-1.8881836-.706665-3.6107178-1.8624268-4.930542l1.4134521-1.4134521c1.5167847 1.684082 2.4489746 3.90448 2.4489746 6.3439941 0 5.2382812-4.2617188 9.5-9.5 9.5s-9.5-4.2617188-9.5-9.5 4.2617188-9.5 9.5-9.5zm3.5 9.5c0 1.9296875-1.5703125 3.5-3.5 3.5s-3.5-1.5703125-3.5-3.5 1.5703125-3.5 3.5-3.5c.7845459 0 1.5019531.2689209 2.0863037.706665l-2.4398193 2.4398193c-.1953125.1953125-.1953125.5117188 0 .7070312.0976562.0976562.2255859.1464844.3535156.1464844s.2558594-.0488281.3535156-.1464844l2.4398193-2.4398193c.4377441.5843506.706665 1.3017578.706665 2.0863037zm-.7067871-3.5002441c-.7698975-.6158447-1.7327881-.9997559-2.7932129-.9997559-2.4814453 0-4.5 2.0185547-4.5 4.5s2.0185547 4.5 4.5 4.5 4.5-2.0185547 4.5-4.5c0-1.0604248-.3839111-2.0233154-.9997559-2.7932129l1.4304199-1.4304199c.975708 1.1372681 1.5693359 2.6112671 1.5693359 4.2236328 0 3.5839844-2.9160156 6.5-6.5 6.5s-6.5-2.9160156-6.5-6.5 2.9160156-6.5 6.5-6.5c1.6123657 0 3.0863647.5936279 4.2236328 1.5693359l-1.4304199 1.4304199zM6.4540405 5.4540405c-.1952515.1952515-.1952515.5118408 0 .7070923s.5118408.1952515.7071533 0c.1952515-.1952515.1952515-.5118408 0-.7070923-.1953125-.1952515-.5119019-.1952515-.7071533 0z" fill="#00c6ff" class="color000000 svgShape"></path>
</svg>
