<svg xmlns="http://www.w3.org/2000/svg" width="48" height="48" id="vision">
  <path fill="#FFF" d="M45.303 23.367c.263.387.263.879-.005 1.264C43.455 27.296 35.638 37.5 24 37.5S4.545 27.296 2.702 24.631a1.103 1.103 0 0 1-.005-1.264C4.528 20.697 12.284 10.5 24 10.5s19.472 10.197 21.303 12.867z"></path>
  <path fill="#0277BD" d="M24 38C12.255 38 4.414 27.985 2.291 24.916a1.603 1.603 0 0 1-.007-1.83C4.39 20.015 12.177 10 24 10s19.61 10.015 21.715 13.084l.001.001c.38.559.377 1.278-.008 1.831C43.586 27.985 35.745 38 24 38zm0-27C12.666 11 5.145 20.683 3.109 23.65a.601.601 0 0 0 .003.695C5.167 27.315 12.742 37 24 37s18.833-9.685 20.887-12.654a.603.603 0 0 0 .003-.697C42.854 20.681 35.334 11 24 11z"></path>
  <circle cx="24" cy="24" r="10.5" fill="#87D6FA"></circle>
  <path fill="#0277BD" d="M24 35c-6.065 0-11-4.935-11-11s4.935-11 11-11 11 4.935 11 11-4.935 11-11 11zm0-21c-5.514 0-10 4.486-10 10s4.486 10 10 10 10-4.486 10-10-4.486-10-10-10z"></path>
  <path fill="#B3E5FC" d="M24 32.5c-4.688 0-8.501-3.813-8.501-8.5s3.814-8.5 8.501-8.5 8.501 3.813 8.501 8.5-3.813 8.5-8.501 8.5zm0-16c-4.136 0-7.501 3.364-7.501 7.5s3.365 7.5 7.501 7.5 7.501-3.364 7.501-7.5-3.365-7.5-7.501-7.5z"></path>
  <circle cx="24" cy="24" r="4.5" fill="#455A64"></circle>
  <path fill="#0277BD" d="M24 29c-2.757 0-5-2.243-5-5s2.243-5 5-5 5 2.243 5 5-2.243 5-5 5zm0-9c-2.206 0-4 1.794-4 4s1.794 4 4 4 4-1.794 4-4-1.794-4-4-4z"></path>
  <circle cx="30.858" cy="30.75" r="2.5" fill="#FFF"></circle>
  <circle cx="18.285" cy="18.375" r="4.5" fill="#FFF"></circle>
  <path fill="#0277BD" d="M30.445 43.479a.501.501 0 0 1-.489-.396l-.832-3.913a.5.5 0 0 1 .978-.208l.832 3.913a.5.5 0 0 1-.489.604zm6.164-2.002a.497.497 0 0 1-.457-.297l-1.627-3.654a.5.5 0 1 1 .913-.407l1.627 3.654a.5.5 0 0 1-.456.704zm5.613-3.241a.498.498 0 0 1-.405-.206l-2.351-3.236a.499.499 0 1 1 .808-.588l2.351 3.236a.499.499 0 0 1-.403.794zm-36.444 0a.5.5 0 0 1-.403-.794l2.351-3.236a.5.5 0 1 1 .808.588L6.183 38.03a.498.498 0 0 1-.405.206zm5.613 3.241a.5.5 0 0 1-.456-.703l1.627-3.654a.5.5 0 1 1 .913.407l-1.627 3.654a.5.5 0 0 1-.457.296zm6.164 2.002a.5.5 0 0 1-.489-.604l.832-3.913a.5.5 0 0 1 .978.208l-.832 3.913a.5.5 0 0 1-.489.396zm6.445.677a.5.5 0 0 1-.5-.5v-4a.5.5 0 0 1 1 0v4a.5.5 0 0 1-.5.5zM29.614 9.59a.5.5 0 0 1-.489-.604l.832-3.913a.5.5 0 0 1 .978.208l-.832 3.913a.5.5 0 0 1-.489.396zm5.367 1.744a.5.5 0 0 1-.456-.703l1.627-3.654a.499.499 0 1 1 .913.407l-1.627 3.654a.498.498 0 0 1-.457.296zm4.889 2.822a.5.5 0 0 1-.403-.794l2.351-3.236a.5.5 0 1 1 .808.588l-2.351 3.236a.5.5 0 0 1-.405.206zm-31.74 0a.498.498 0 0 1-.405-.206l-2.351-3.236a.499.499 0 1 1 .808-.588l2.351 3.236a.499.499 0 0 1-.403.794zm4.889-2.822a.497.497 0 0 1-.457-.297l-1.627-3.654a.5.5 0 1 1 .913-.407l1.627 3.654a.5.5 0 0 1-.456.704zm5.367-1.744a.501.501 0 0 1-.489-.396l-.832-3.913a.5.5 0 0 1 .978-.208l.832 3.913a.5.5 0 0 1-.489.604zM24 9a.5.5 0 0 1-.5-.5v-4a.5.5 0 0 1 1 0v4a.5.5 0 0 1-.5.5z"></path>
</svg>
